<?xml version="1.0" encoding="UTF-8"?>
<svg id="Layer_2" xmlns="http://www.w3.org/2000/svg" viewBox="0 0 32.34 52.18">
  <defs>
    <style>
      .cls-1 {
        fill: #69c3ff;
      }
    </style>
  </defs>
  <g id="Layer_1-2" data-name="Layer_1">
    <path class="cls-1" d="M7.23,32.35c0,1.74.36,3.46,1.05,5.05,2.24,5.19,8.25,7.58,13.44,5.35,4.15-1.78,6.07-6.6,4.28-10.75h0c-1.43-3.33-5.28-4.86-8.6-3.43h0c-2.54,1.1-3.79,3.98-2.86,6.58,0,0,.46,1.13-.65,1.67-1.36.62-1.83-.78-1.83-.78-1.39-3.92.48-8.24,4.29-9.9,4.66-2,10.06.15,12.06,4.81,2.37,5.49-.16,11.85-5.64,14.22,0,0-.01,0-.02,0-6.52,2.81-14.09-.21-16.89-6.73,0,0,0,0,0-.02-.84-2.11-1.27-4.35-1.27-6.62v-14.79c0-1.05-1.18-1.81-2.03-1.82C.92,15.21,0,16.82,0,18.04v17.01c0,1.33.15,2.66.46,3.95,1.83,7.72,8.73,13.17,16.67,13.18h.82c8.12-.39,14.39-7.32,14.39-15.45V10.54c0-1.16-.94-2.11-2.11-2.11s-2.11.94-2.11,2.11v9.8c0,.7-.57,1.27-1.27,1.27h-.29c-.7,0-1.27-.57-1.27-1.27h0V5.27c0-1.13-.88-2.05-2.01-2.11-1.21,0-2.2.97-2.21,2.18v14.99c0,.7-.56,1.26-1.25,1.27h-.35c-.7,0-1.27-.57-1.27-1.27h0V2.11c0-1.13-.88-2.05-2.01-2.11-1.21,0-2.2.97-2.21,2.18v18.15c0,.34-.13.66-.37.9-.51.49-1.31.47-1.8-.03-.23-.23-.35-.55-.36-.87V5.27c0-.56-.22-1.09-.61-1.49-.37-.37-.86-.59-1.38-.61-1.21-.02-2.2.94-2.22,2.15v27.03Z"/>
  </g>
</svg>